<svg width="20" height="20" viewBox="0 0 20 20" fill="none" xmlns="http://www.w3.org/2000/svg">
<g clip-path="url(#clip0_1131_45368)">
<path d="M14.4167 9.16669C14.4167 11.6667 12.3001 13.4167 10.0001 13.4167C7.70008 13.4167 5.58341 11.6667 5.58341 9.16669H4.16675C4.16675 12.0084 6.43341 14.3584 9.16675 14.7667V17.5H10.8334V14.7667C13.5667 14.3584 15.8334 12.0084 15.8334 9.16669M9.00008 4.08335C9.00008 3.53335 9.45008 3.08335 10.0001 3.08335C10.5501 3.08335 11.0001 3.53335 11.0001 4.08335L10.9917 9.25002C10.9917 9.80002 10.5501 10.25 10.0001 10.25C9.45008 10.25 9.00008 9.80002 9.00008 9.25002M10.0001 11.6667C10.6631 11.6667 11.299 11.4033 11.7678 10.9345C12.2367 10.4656 12.5001 9.82973 12.5001 9.16669V4.16669C12.5001 3.50365 12.2367 2.86776 11.7678 2.39892C11.299 1.93008 10.6631 1.66669 10.0001 1.66669C9.33704 1.66669 8.70115 1.93008 8.23231 2.39892C7.76347 2.86776 7.50008 3.50365 7.50008 4.16669V9.16669C7.50008 9.82973 7.76347 10.4656 8.23231 10.9345C8.70115 11.4033 9.33704 11.6667 10.0001 11.6667V11.6667Z" fill="#60666E"/>
</g>
<defs>
<clipPath id="clip0_1131_45368">
<rect width="20" height="20" fill="white"/>
</clipPath>
</defs>
</svg>
