<svg width="20" height="20" viewBox="0 0 20 20" fill="none" xmlns="http://www.w3.org/2000/svg">
<path d="M11.0465 13.75H7.7907V11.25H11.0465C11.4166 11.25 11.7715 11.3817 12.0332 11.6161C12.2949 11.8505 12.4419 12.1684 12.4419 12.5C12.4419 12.8315 12.2949 13.1494 12.0332 13.3838C11.7715 13.6183 11.4166 13.75 11.0465 13.75ZM7.7907 6.24996H10.5814C10.9515 6.24996 11.3064 6.38166 11.5681 6.61608C11.8297 6.8505 11.9767 7.16844 11.9767 7.49996C11.9767 7.83148 11.8297 8.14942 11.5681 8.38384C11.3064 8.61826 10.9515 8.74996 10.5814 8.74996H7.7907M13 9.82496C13.9023 9.25829 14.5349 8.33329 14.5349 7.49996C14.5349 5.61663 12.907 4.16663 10.814 4.16663H5V15.8333H11.5488C13.5023 15.8333 15 14.4166 15 12.675C15 11.4083 14.2 10.325 13 9.82496Z" fill="#229976"/>
</svg>
