<svg width="20" height="20" viewBox="0 0 20 20" fill="none" xmlns="http://www.w3.org/2000/svg">
<g clip-path="url(#clip0_1253_42170)">
<path d="M7.50004 2.5V3.33333H3.33337V5H4.16671V15.8333C4.16671 16.2754 4.3423 16.6993 4.65486 17.0118C4.96742 17.3244 5.39135 17.5 5.83337 17.5H14.1667C14.6087 17.5 15.0327 17.3244 15.3452 17.0118C15.6578 16.6993 15.8334 16.2754 15.8334 15.8333V5H16.6667V3.33333H12.5V2.5H7.50004ZM5.83337 5H14.1667V15.8333H5.83337V5ZM7.50004 6.66667V14.1667H9.16671V6.66667H7.50004ZM10.8334 6.66667V14.1667H12.5V6.66667H10.8334Z" fill="white"/>
</g>
<defs>
<clipPath id="clip0_1253_42170">
<rect width="20" height="20" fill="white"/>
</clipPath>
</defs>
</svg>
