<svg width="20" height="20" viewBox="0 0 20 20" fill="none" xmlns="http://www.w3.org/2000/svg">
<path d="M9.16659 4.99998C9.16659 4.08331 8.41659 3.33331 7.49992 3.33331C6.58325 3.33331 5.83325 4.08331 5.83325 4.99998C5.83325 5.91665 6.58325 6.66665 7.49992 6.66665C8.41659 6.66665 9.16659 5.91665 9.16659 4.99998ZM9.16659 15C9.16659 14.0833 8.41659 13.3333 7.49992 13.3333C6.58325 13.3333 5.83325 14.0833 5.83325 15C5.83325 15.9166 6.58325 16.6666 7.49992 16.6666C8.41659 16.6666 9.16659 15.9166 9.16659 15ZM9.16659 9.99998C9.16659 9.08331 8.41659 8.33331 7.49992 8.33331C6.58325 8.33331 5.83325 9.08331 5.83325 9.99998C5.83325 10.9166 6.58325 11.6666 7.49992 11.6666C8.41659 11.6666 9.16659 10.9166 9.16659 9.99998Z" fill="#60666E"/>
<path d="M14.1666 4.99998C14.1666 4.08331 13.4166 3.33331 12.4999 3.33331C11.5833 3.33331 10.8333 4.08331 10.8333 4.99998C10.8333 5.91665 11.5833 6.66665 12.4999 6.66665C13.4166 6.66665 14.1666 5.91665 14.1666 4.99998ZM14.1666 15C14.1666 14.0833 13.4166 13.3333 12.4999 13.3333C11.5833 13.3333 10.8333 14.0833 10.8333 15C10.8333 15.9166 11.5833 16.6666 12.4999 16.6666C13.4166 16.6666 14.1666 15.9166 14.1666 15ZM14.1666 9.99998C14.1666 9.08331 13.4166 8.33331 12.4999 8.33331C11.5833 8.33331 10.8333 9.08331 10.8333 9.99998C10.8333 10.9166 11.5833 11.6666 12.4999 11.6666C13.4166 11.6666 14.1666 10.9166 14.1666 9.99998Z" fill="#60666E"/>
</svg>
