<svg width="24" height="24" viewBox="0 0 24 24" fill="none" xmlns="http://www.w3.org/2000/svg">
<path d="M12.0593 16.5532H5.76296C5.25926 16.5248 4.83951 16.3404 4.5037 16C4.1679 15.6596 4 15.234 4 14.7234V3.82979C4 3.31915 4.1679 2.89362 4.5037 2.55319C4.83951 2.21277 5.25926 2.02837 5.76296 2H16.5086V3.82979H5.76296V14.7234H12.0593V12.8936L15.6272 15.617L12.0593 18.3404V16.5532ZM19.1951 20.1702V7.44681H9.37284V12.8936H7.5679V7.44681C7.5679 6.93617 7.7358 6.51064 8.0716 6.17021C8.43539 5.82979 8.86914 5.65957 9.37284 5.65957H19.1951C19.6988 5.65957 20.1185 5.82979 20.4543 6.17021C20.8181 6.51064 21 6.93617 21 7.44681V20.1702C21 20.6809 20.8181 21.1064 20.4543 21.4468C20.1185 21.7872 19.6988 21.9716 19.1951 22H9.37284C8.86914 21.9716 8.43539 21.7872 8.0716 21.4468C7.7358 21.1064 7.5679 20.6809 7.5679 20.1702V18.3404H9.37284V20.1702H19.1951Z" fill="#797D85"/>
</svg>
