<svg width="20" height="20" viewBox="0 0 20 20" fill="none" xmlns="http://www.w3.org/2000/svg">
<path d="M2.5 4.16663H4.16667V9.16663H7.5V4.16663H9.16667V15.8333H7.5V10.8333H4.16667V15.8333H2.5V4.16663ZM17.5 15.8333H12.5C12.058 15.8333 11.634 15.6577 11.3215 15.3451C11.0089 15.0326 10.8333 14.6087 10.8333 14.1666C10.8333 13.725 11 13.3333 11.2833 13.0333L15.3417 8.67496C15.65 8.37496 15.8333 7.95829 15.8333 7.49996C15.8333 7.05793 15.6577 6.63401 15.3452 6.32145C15.0326 6.00889 14.6087 5.83329 14.1667 5.83329C13.7246 5.83329 13.3007 6.00889 12.9882 6.32145C12.6756 6.63401 12.5 7.05793 12.5 7.49996H10.8333C10.8333 6.6159 11.1845 5.76806 11.8096 5.14294C12.4348 4.51782 13.2826 4.16663 14.1667 4.16663C15.0507 4.16663 15.8986 4.51782 16.5237 5.14294C17.1488 5.76806 17.5 6.6159 17.5 7.49996C17.5 8.41663 17.125 9.24996 16.525 9.85829L12.5 14.1666H17.5V15.8333Z" fill="#60666E"/>
</svg>
