<svg width="20" height="20" viewBox="0 0 20 20" fill="none" xmlns="http://www.w3.org/2000/svg">
<g clip-path="url(#clip0_1155_45407)">
<path d="M2.5 3.33331H4.16667V8.33331H7.5V3.33331H9.16667V15H7.5V9.99998H4.16667V15H2.5V3.33331ZM10.8333 6.66665H12.7583L13.025 4.16665H14.6917L14.425 6.66665H16.0917L16.3583 4.16665H18.025L17.7583 6.66665H19.1667V8.33331H17.5833L17.4167 9.99998H19.1667V11.6666H17.2417L16.975 14.1666H15.3083L15.575 11.6666H13.9083L13.6417 14.1666H11.975L12.2417 11.6666H10.8333V9.99998H12.4167L12.5833 8.33331H10.8333V6.66665ZM14.25 8.33331L14.0833 9.99998H15.75L15.9167 8.33331H14.25Z" fill="#60666E"/>
</g>
<defs>
<clipPath id="clip0_1155_45407">
<rect width="20" height="20" fill="white"/>
</clipPath>
</defs>
</svg>
