<svg width="20" height="20" viewBox="0 0 20 20" fill="none" xmlns="http://www.w3.org/2000/svg">
<path d="M2.5 4.16663H4.17969V9.16105H7.5V4.16663H9.17969V15.8333H7.5V10.8389H4.17969V15.8333H2.5V4.16663ZM12.5 4.16663H15.8203C16.2891 4.19264 16.6797 4.36172 16.9922 4.67387C17.3307 4.98602 17.5 5.37621 17.5 5.84444V14.1555C17.5 14.6237 17.3307 15.0269 16.9922 15.3651C16.6797 15.6772 16.2891 15.8333 15.8203 15.8333H12.5C12.0312 15.8333 11.6406 15.6772 11.3281 15.3651C11.0156 15.0269 10.8464 14.6237 10.8203 14.1555V13.3361H12.5V14.1555H15.8203V10.8389H12.5V9.16105H15.8203V5.84444H12.5V6.66384H10.8203V5.84444C10.8464 5.37621 11.0156 4.98602 11.3281 4.67387C11.6406 4.36172 12.0312 4.19264 12.5 4.16663Z" fill="#229976"/>
</svg>
