<svg width="20" height="20" viewBox="0 0 20 20" fill="none" xmlns="http://www.w3.org/2000/svg">
<path d="M3.24999 10C3.24999 8.57504 4.40832 7.41671 5.83332 7.41671H9.16666V5.83337H5.83332C3.53332 5.83337 1.66666 7.70004 1.66666 10C1.66666 12.3 3.53332 14.1667 5.83332 14.1667H9.16666V12.5834H5.83332C4.40832 12.5834 3.24999 11.425 3.24999 10ZM6.66666 10.8334H13.3333V9.16671H6.66666V10.8334ZM14.1667 5.83337H10.8333V7.41671H14.1667C15.5917 7.41671 16.75 8.57504 16.75 10C16.75 11.425 15.5917 12.5834 14.1667 12.5834H10.8333V14.1667H14.1667C16.4667 14.1667 18.3333 12.3 18.3333 10C18.3333 7.70004 16.4667 5.83337 14.1667 5.83337Z" fill="#229976"/>
</svg>
