<svg width="20" height="20" viewBox="0 0 20 20" fill="none" xmlns="http://www.w3.org/2000/svg">
<path d="M5.83341 10.8333V9.16665H17.5001V10.8333H5.83341ZM5.83341 15.8333V14.1666H17.5001V15.8333H5.83341ZM5.83341 5.83331V4.16665H17.5001V5.83331H5.83341ZM2.50008 6.66665V4.16665H1.66675V3.33331H3.33341V6.66665H2.50008ZM1.66675 14.1666V13.3333H4.16675V16.6666H1.66675V15.8333H3.33341V15.4166H2.50008V14.5833H3.33341V14.1666H1.66675ZM3.54175 8.33331C3.70751 8.33331 3.86648 8.39916 3.98369 8.51637C4.1009 8.63358 4.16675 8.79255 4.16675 8.95831C4.16675 9.12498 4.10008 9.28331 3.99175 9.39165L2.60008 10.8333H4.16675V11.6666H1.66675V10.9L3.33341 9.16665H1.66675V8.33331H3.54175Z" fill="#60666E"/>
</svg>
