<svg width="20" height="20" viewBox="0 0 20 20" fill="none" xmlns="http://www.w3.org/2000/svg">
<path d="M17.5 10.0451V11.3694H14.5068C15.1886 12.7864 15.1545 16.6665 10.2591 16.6665C4.57955 16.6996 4.79773 12.3626 4.79773 12.3626L7.50455 12.3957C7.525 14.6271 9.65909 14.6271 10.0818 14.6006C10.5182 14.5675 12.1477 14.5742 12.2773 13.0248C12.3318 12.303 11.5818 11.7534 10.7636 11.3694H2.5V10.0451H17.5ZM15.0523 7.32373L12.3386 7.30386C12.3386 7.30386 12.4545 5.46974 10.1023 5.46312C7.75 5.44987 7.95455 6.91982 7.95455 7.10522C7.98182 7.29062 8.18636 8.20437 10 8.64139H5.71136C5.71136 8.64139 3.33182 4.18519 9.14091 3.42373C15.0795 2.62916 15.0659 7.33697 15.0523 7.32373Z" fill="#229976"/>
</svg>
