<svg width="20" height="20" viewBox="0 0 20 20" fill="none" xmlns="http://www.w3.org/2000/svg">
<g clip-path="url(#clip0_1131_45342)">
<path d="M4.16667 3.33331H15.8333C16.2754 3.33331 16.6993 3.50891 17.0118 3.82147C17.3244 4.13403 17.5 4.55795 17.5 4.99998V15C17.5 15.442 17.3244 15.8659 17.0118 16.1785C16.6993 16.4911 16.2754 16.6666 15.8333 16.6666H4.16667C3.72464 16.6666 3.30072 16.4911 2.98816 16.1785C2.67559 15.8659 2.5 15.442 2.5 15V4.99998C2.5 4.55795 2.67559 4.13403 2.98816 3.82147C3.30072 3.50891 3.72464 3.33331 4.16667 3.33331M4.16667 6.66665V9.99998H9.16667V6.66665H4.16667ZM10.8333 6.66665V9.99998H15.8333V6.66665H10.8333ZM4.16667 11.6666V15H9.16667V11.6666H4.16667ZM10.8333 11.6666V15H15.8333V11.6666H10.8333Z" fill="#60666E"/>
</g>
<defs>
<clipPath id="clip0_1131_45342">
<rect width="20" height="20" fill="white"/>
</clipPath>
</defs>
</svg>
