<svg width="20" height="20" viewBox="0 0 20 20" fill="none" xmlns="http://www.w3.org/2000/svg">
<g clip-path="url(#clip0_1386_56584)">
<path d="M15.4166 3.33337L16.3833 6.95837L15.5833 7.17504C15.2083 6.45004 14.825 5.72504 14.3833 5.35837C13.9416 5.00004 13.425 5.00004 12.9166 5.00004H10.8333V13.75C10.8333 14.1667 10.8333 14.5834 11.1083 14.7917C11.3916 15 11.9416 15 12.5 15V15.8334H7.49997V15C8.0583 15 8.6083 15 8.89164 14.7917C9.16664 14.5834 9.16664 14.1667 9.16664 13.75V5.00004H7.0833C6.57497 5.00004 6.0583 5.00004 5.61664 5.35837C5.17497 5.72504 4.79164 6.45004 4.41664 7.17504L3.61664 6.95837L4.5833 3.33337H15.4166Z" fill="#229976"/>
</g>
<defs>
<clipPath id="clip0_1386_56584">
<rect width="20" height="20" fill="white"/>
</clipPath>
</defs>
</svg>
