<svg width="20" height="20" viewBox="0 0 20 20" fill="none" xmlns="http://www.w3.org/2000/svg">
<path d="M17.5 5.83333V2.5H14.1667V3.33333H5.83333V2.5H2.5V5.83333H3.33333V14.1667H2.5V17.5H5.83333V16.6667H14.1667V17.5H17.5V14.1667H16.6667V5.83333H17.5ZM15 3.33333H16.6667V5H15V3.33333ZM3.33333 3.33333H5V5H3.33333V3.33333ZM5 16.6667H3.33333V15H5V16.6667ZM16.6667 16.6667H15V15H16.6667V16.6667ZM15 14.1667H14.1667V15H5.83333V14.1667H5V5.83333H5.83333V5H14.1667V5.83333H15V14.1667ZM13.3333 6.66667V8.33333H10.8333V13.3333H9.16667V8.33333H6.66667V6.66667H13.3333Z" fill="#60666E"/>
</svg>
