<svg width="20" height="20" viewBox="0 0 20 20" fill="none" xmlns="http://www.w3.org/2000/svg">
<path d="M4.16666 17.5H15.8333V15.8333H4.16666V17.5ZM9.99999 14.1667C11.3261 14.1667 12.5978 13.6399 13.5355 12.7022C14.4732 11.7645 15 10.4927 15 9.16667V2.5H12.9167V9.16667C12.9167 9.94021 12.6094 10.6821 12.0624 11.2291C11.5154 11.776 10.7735 12.0833 9.99999 12.0833C9.22644 12.0833 8.48458 11.776 7.9376 11.2291C7.39061 10.6821 7.08332 9.94021 7.08332 9.16667V2.5H4.99999V9.16667C4.99999 10.4927 5.52677 11.7645 6.46446 12.7022C7.40214 13.6399 8.67391 14.1667 9.99999 14.1667Z" fill="#60666E"/>
</svg>
