<svg width="20" height="20" viewBox="0 0 20 20" fill="none" xmlns="http://www.w3.org/2000/svg">
<path d="M10.0067 8.32551H8.32551V10.0067H7.50447V8.32551H5.82328V7.50447H7.50447V5.82328H8.32551V7.50447H10.0067V8.32551ZM5.27592 10.5932C6.00573 11.323 6.89194 11.6879 7.93454 11.6879C8.97714 11.6879 9.86335 11.323 10.5932 10.5932C11.323 9.86335 11.6879 8.97714 11.6879 7.93454C11.6879 6.89194 11.323 6.00573 10.5932 5.27592C9.86335 4.5461 8.97714 4.18119 7.93454 4.18119C6.89194 4.18119 6.00573 4.5461 5.27592 5.27592C4.5461 6.00573 4.18119 6.89194 4.18119 7.93454C4.18119 8.97714 4.5461 9.86335 5.27592 10.5932ZM12.939 11.6879L17.0833 15.8322L15.8322 17.0833L11.6879 12.939V12.2744L11.4533 12.0398C10.4628 12.8999 9.28992 13.33 7.93454 13.33C6.42277 13.33 5.13256 12.8087 4.0639 11.7661C3.0213 10.7235 2.5 9.44631 2.5 7.93454C2.5 6.42277 3.0213 5.14559 4.0639 4.10299C5.13256 3.03433 6.42277 2.5 7.93454 2.5C9.44631 2.5 10.7235 3.03433 11.7661 4.10299C12.8087 5.14559 13.33 6.42277 13.33 7.93454C13.33 9.28992 12.8999 10.4628 12.0398 11.4533L12.2744 11.6879H12.939Z" fill="white"/>
</svg>
